<svg width="122" height="205" viewBox="0 0 122 205" fill="none" xmlns="http://www.w3.org/2000/svg">
<circle cx="7.03846" cy="7.03846" r="7.03846" fill="#FD9F67"/>
<circle cx="34.0189" cy="7.03846" r="7.03846" fill="#FD9F67"/>
<circle cx="61.0004" cy="7.03846" r="7.03846" fill="#FD9F67"/>
<circle cx="87.9808" cy="7.03846" r="7.03846" fill="#FD9F67"/>
<circle cx="114.961" cy="7.03846" r="7.03846" fill="#FD9F67"/>
<circle cx="7.03846" cy="30.5004" r="7.03846" fill="#FD9F67"/>
<circle cx="34.0189" cy="30.5004" r="7.03846" fill="#FD9F67"/>
<circle cx="61.0004" cy="30.5004" r="7.03846" fill="#FD9F67"/>
<circle cx="87.9808" cy="30.5004" r="7.03846" fill="#FD9F67"/>
<circle cx="114.961" cy="30.5004" r="7.03846" fill="#FD9F67"/>
<circle cx="7.03846" cy="53.9615" r="7.03846" fill="#FD9F67"/>
<circle cx="34.0189" cy="53.9613" r="7.03846" fill="#FD9F67"/>
<circle cx="61.0004" cy="53.9613" r="7.03846" fill="#FD9F67"/>
<circle cx="87.9808" cy="53.9615" r="7.03846" fill="#FD9F67"/>
<circle cx="114.961" cy="53.9615" r="7.03846" fill="#FD9F67"/>
<circle cx="7.03846" cy="78.5961" r="7.03846" fill="#FD9F67"/>
<circle cx="34.0189" cy="78.5961" r="7.03846" fill="#FD9F67"/>
<circle cx="61.0004" cy="78.5961" r="7.03846" fill="#FD9F67"/>
<circle cx="87.9808" cy="78.5961" r="7.03846" fill="#FD9F67"/>
<circle cx="114.961" cy="78.5961" r="7.03846" fill="#FD9F67"/>
<circle cx="7.03846" cy="102.058" r="7.03846" fill="#FD9F67"/>
<circle cx="34.0189" cy="102.058" r="7.03846" fill="#FD9F67"/>
<circle cx="61.0004" cy="102.058" r="7.03846" fill="#FD9F67"/>
<circle cx="87.9808" cy="102.058" r="7.03846" fill="#FD9F67"/>
<circle cx="114.961" cy="102.058" r="7.03846" fill="#FD9F67"/>
<circle cx="7.03846" cy="125.519" r="7.03846" fill="#FD9F67"/>
<circle cx="34.0189" cy="125.519" r="7.03846" fill="#FD9F67"/>
<circle cx="61.0004" cy="125.519" r="7.03846" fill="#FD9F67"/>
<circle cx="87.9808" cy="125.519" r="7.03846" fill="#FD9F67"/>
<circle cx="114.961" cy="125.519" r="7.03846" fill="#FD9F67"/>
<circle cx="7.03846" cy="150.154" r="7.03846" fill="#FD9F67"/>
<circle cx="34.0189" cy="150.154" r="7.03846" fill="#FD9F67"/>
<circle cx="61.0004" cy="150.154" r="7.03846" fill="#FD9F67"/>
<circle cx="87.9808" cy="150.154" r="7.03846" fill="#FD9F67"/>
<circle cx="114.961" cy="150.154" r="7.03846" fill="#FD9F67"/>
<circle cx="7.03846" cy="173.616" r="7.03846" fill="#FD9F67"/>
<circle cx="34.0189" cy="173.616" r="7.03846" fill="#FD9F67"/>
<circle cx="61.0004" cy="173.616" r="7.03846" fill="#FD9F67"/>
<circle cx="87.9808" cy="173.616" r="7.03846" fill="#FD9F67"/>
<circle cx="114.961" cy="173.616" r="7.03846" fill="#FD9F67"/>
<circle cx="7.03846" cy="197.077" r="7.03846" fill="#FD9F67"/>
<circle cx="34.0189" cy="197.077" r="7.03846" fill="#FD9F67"/>
<circle cx="61.0004" cy="197.077" r="7.03846" fill="#FD9F67"/>
<circle cx="87.9808" cy="197.077" r="7.03846" fill="#FD9F67"/>
<circle cx="114.961" cy="197.077" r="7.03846" fill="#FD9F67"/>
</svg>
