<svg width="74" height="64" viewBox="0 0 74 64" fill="none" xmlns="http://www.w3.org/2000/svg">
<path d="M44.1612 36.1771C49.4347 36.1771 53.7096 31.9021 53.7096 26.6287C53.7096 21.3552 49.4347 17.0803 44.1612 17.0803C38.8878 17.0803 34.6128 21.3552 34.6128 26.6287C34.6128 31.9021 38.8878 36.1771 44.1612 36.1771Z" fill="#F9BA48"/>
<path d="M36.9998 48.1129C34.3667 48.1129 32.2256 50.254 32.2256 52.8871C32.2256 55.5202 34.3667 57.6613 36.9998 57.6613C39.6329 57.6613 41.774 55.5202 41.774 52.8871C41.774 50.254 39.6329 48.1129 36.9998 48.1129ZM36.9998 55.2742C35.6834 55.2742 34.6127 54.2035 34.6127 52.8871C34.6127 51.5707 35.6834 50.5 36.9998 50.5C38.3162 50.5 39.3869 51.5707 39.3869 52.8871C39.3869 54.2035 38.3165 55.2742 36.9998 55.2742Z" fill="#333333"/>
<path d="M72.2887 36.9257C71.218 36.1832 69.8478 36.0149 68.6256 36.4697L68.4884 36.5211L55.5777 4.82977L23.0153 16.4597L16.3123 0.370789H3.58053C1.60643 0.370789 0 1.97721 0 3.95132C0 5.92542 1.60643 7.5321 3.58053 7.5321H11.1477L28.0245 47.0004C26.911 48.6929 26.2582 50.7136 26.2582 52.8871C26.2582 58.8107 31.0777 63.6292 37 63.6292C42.9223 63.6292 47.7418 58.8109 47.7418 52.8871C47.7418 52.769 47.7276 52.6531 47.724 52.5362L71.3814 43.9342C72.9474 43.3636 74 41.8621 74 40.1948C74.0003 38.8901 73.3604 37.6692 72.2887 36.9257ZM40.071 12.9029L43.7616 21.2065L40.0114 22.7067L36.259 14.2646L40.071 12.9029ZM34.0043 15.0692L38.763 25.7767L46.9484 22.5028L42.3247 12.0985L54.2292 7.84707L66.2531 37.3601L44.7202 45.4358C42.7652 43.4102 40.0295 42.1453 37.0003 42.1453C35.925 42.1453 34.8889 42.3087 33.9089 42.6036L23.9342 18.6653L34.0043 15.0692ZM3.58053 5.145C2.92284 5.145 2.38711 4.61029 2.38711 3.95132C2.38711 3.29235 2.92309 2.75764 3.58053 2.75764H14.7198L31.7148 43.5462C31.0059 43.9485 30.3518 44.4318 29.7549 44.9785L12.7233 5.145H3.58053ZM37 61.2418C32.3928 61.2418 28.6453 57.493 28.6453 52.8868C28.6453 48.2807 32.3931 44.5319 37 44.5319C41.6069 44.5319 45.3547 48.2807 45.3547 52.8868C45.3547 57.493 41.6072 61.2418 37 61.2418ZM70.5664 41.6902L47.3698 50.1252C47.1132 49.1632 46.7277 48.255 46.2299 47.4183L69.4636 38.7053C69.9601 38.5179 70.4925 38.5848 70.9292 38.8868C71.3636 39.1888 71.6132 39.6662 71.6132 40.1948C71.6132 40.8619 71.1917 41.4624 70.5664 41.6902Z" fill="#333333"/>
</svg>
