<svg width="66" height="66" viewBox="0 0 66 66" fill="none" xmlns="http://www.w3.org/2000/svg">
<path d="M35.1294 30.871H34.7483C32.2137 32.8646 29.0246 34.0644 25.5489 34.0644C22.0732 34.0644 18.8841 32.8646 16.3494 30.8707H15.9684H5.32324V47.9029H45.7747V30.8707H35.1294V30.871Z" fill="#F9BA48"/>
<path d="M62.8068 52.1612H61.7422V40.4515H57.3833L56.3187 29.8063H46.8393V20.2259H41.4623C41.4857 19.8725 41.5166 19.5212 41.5166 19.1612C41.5166 14.8712 39.807 10.9783 37.0446 8.10619L37.7909 7.35995L39.6996 9.2687L41.2048 7.7635L35.8823 2.44083L34.3771 3.94602L36.2859 5.85476L35.4695 6.67117C33.003 4.70815 29.9479 3.46912 26.6139 3.2477V2.12902H29.8073V0H21.2912V2.12902H24.4846V3.24793C21.1506 3.46935 18.0955 4.70952 15.629 6.6714L14.8126 5.85499L16.7213 3.94625L15.2161 2.44105L9.89302 7.7635L11.3982 9.2687L13.307 7.35995L14.0532 8.10619C11.2908 10.9783 9.58121 14.8712 9.58121 19.1612C9.58121 19.5209 9.6121 19.8723 9.63549 20.2259H4.25854V52.1612H3.19414C1.43346 52.1612 0.000488281 53.594 0.000488281 55.3546C0.000488281 57.1153 1.43324 58.5483 3.19391 58.5483H4.25831H6.38734H9.58076C9.58076 62.6562 12.9234 66 17.0322 66C21.1411 66 24.4837 62.6565 24.4837 58.5483H44.7093C44.7093 62.6562 48.052 66 52.1608 66C56.2697 66 59.6123 62.6565 59.6123 58.5483H61.7413H62.8059C64.5666 58.5483 65.9994 57.1156 65.9994 55.3546C65.9994 53.5937 64.5675 52.1612 62.8068 52.1612ZM54.3918 31.9354L55.2434 40.4515H46.839V31.9354H54.3918ZM25.5488 5.32268C33.1792 5.32268 39.3873 11.5308 39.3873 19.1615C39.3873 26.7921 33.1792 33 25.5488 33C17.9184 33 11.7102 26.7916 11.7102 19.1612C11.7102 11.5308 17.9184 5.32268 25.5488 5.32268ZM4.25854 56.4193H3.19414C2.60755 56.4193 2.12974 55.9424 2.12974 55.3546C2.12974 54.7669 2.60778 54.29 3.19414 54.29H4.25854V56.4193ZM17.0327 63.8707C14.0979 63.8707 11.7102 61.4831 11.7102 58.5481C11.7102 55.6131 14.0979 53.2256 17.0327 53.2256C19.9675 53.2256 22.3551 55.6133 22.3551 58.5483C22.3551 61.4833 19.9677 63.8707 17.0327 63.8707ZM24.1703 56.4193C23.2515 53.3448 20.4007 51.0966 17.0327 51.0966C13.6646 51.0966 10.8139 53.3448 9.89506 56.4193H6.38756V52.1612V22.3549H9.90256C11.3864 29.634 17.8375 35.129 25.5488 35.129C33.2601 35.129 39.711 29.634 41.195 22.3549H44.71V29.8066V40.4517V42.5807V56.4195H24.1703V56.4193ZM52.1615 63.8707C49.2267 63.8707 46.839 61.4831 46.839 58.5481C46.839 55.6131 49.2267 53.2254 52.1615 53.2254C55.0962 53.2254 57.4839 55.6131 57.4839 58.5481C57.4839 61.4831 55.0965 63.8707 52.1615 63.8707ZM59.6134 56.4193H59.2993C58.3805 53.3448 55.5298 51.0966 52.1615 51.0966C50.0772 51.0966 48.193 51.9589 46.839 53.3437V42.5805H57.5959H59.6132V52.1612V56.4193H59.6134ZM62.8068 56.4193H61.7422V54.2902H62.8068C63.3934 54.2902 63.8712 54.7672 63.8712 55.3549C63.8712 55.9426 63.3932 56.4193 62.8068 56.4193Z" fill="#333333"/>
<path d="M17.0328 55.3546C15.2721 55.3546 13.8394 56.7874 13.8394 58.5483C13.8394 60.309 15.2721 61.7419 17.0328 61.7419C18.7935 61.7419 20.2262 60.3092 20.2262 58.5483C20.2264 56.7874 18.7935 55.3546 17.0328 55.3546ZM17.0328 59.6127C16.4462 59.6127 15.9684 59.1358 15.9684 58.5481C15.9684 57.9603 16.4464 57.4834 17.0328 57.4834C17.6191 57.4834 18.0972 57.9603 18.0972 58.5481C18.0972 59.1358 17.6194 59.6127 17.0328 59.6127Z" fill="#333333"/>
<path d="M52.1612 55.3546C50.4005 55.3546 48.9678 56.7874 48.9678 58.5483C48.9678 60.309 50.4005 61.7419 52.1612 61.7419C53.9219 61.7419 55.3546 60.3092 55.3546 58.5483C55.3548 56.7874 53.9219 55.3546 52.1612 55.3546ZM52.1612 59.6127C51.5746 59.6127 51.0966 59.1358 51.0966 58.5481C51.0966 57.9603 51.5746 57.4834 52.1612 57.4834C52.7478 57.4834 53.2256 57.9603 53.2256 58.5481C53.2256 59.1358 52.7478 59.6127 52.1612 59.6127Z" fill="#333333"/>
<path d="M22.3553 19.1612C22.3553 20.9219 23.788 22.3549 25.5487 22.3549C27.3094 22.3549 28.7421 20.9221 28.7421 19.1612C28.7421 17.4003 27.3094 15.9676 25.5487 15.9676C25.3677 15.9676 25.1931 15.9921 25.0196 16.0207L18.905 8.88763L17.2881 10.2736L23.1344 17.094C22.6553 17.6529 22.3553 18.3693 22.3553 19.1612ZM26.6133 19.1612C26.6133 19.7478 26.1353 20.2259 25.5489 20.2259C24.9623 20.2259 24.4845 19.7478 24.4845 19.1612C24.4845 18.5746 24.9626 18.0966 25.5489 18.0966C26.1353 18.0968 26.6133 18.5746 26.6133 19.1612Z" fill="#333333"/>
<path d="M24.578 30.8231L24.7527 28.7015C19.8272 28.2948 15.9684 24.1049 15.9684 19.1614C15.9684 16.8217 16.8307 14.5648 18.3965 12.8041L16.8061 11.3893C14.8933 13.5397 13.8394 16.2998 13.8394 19.1612C13.8394 25.2045 18.5561 30.3268 24.578 30.8231Z" fill="#333333"/>
</svg>
