<svg width="65" height="65" viewBox="0 0 65 65" fill="none" xmlns="http://www.w3.org/2000/svg">
<path d="M60.8064 31.4516V28.3064C60.8064 23.1044 56.5731 18.871 51.371 18.871H49.9494C52.0923 17.1401 53.4677 14.495 53.4677 11.5323V8.3871C53.4677 3.76266 49.7051 0 45.0806 0H42.9839C38.3594 0 34.5968 3.76266 34.5968 8.3871V11.5323C34.5968 14.495 35.9723 17.1401 38.1152 18.871H36.6935C33.7308 18.871 31.0857 20.2465 29.3548 22.3894V13.629H2.09677V31.4516H0V39.8387H2.09677V65H4.19355V39.8387H60.8064V65H62.9032V39.8387H65V31.4516H60.8064ZM36.6935 8.3871C36.6935 4.91798 39.5148 2.09677 42.9839 2.09677H45.0806C48.5498 2.09677 51.371 4.91798 51.371 8.3871V10.0928C51.1141 9.87581 50.917 9.58645 50.83 9.23944L50.7996 9.11887C50.3844 7.45298 48.8947 6.29032 47.1774 6.29032H40.8871C39.1698 6.29032 37.6801 7.45298 37.266 9.11468L37.2335 9.24363C37.1475 9.58855 36.9504 9.87685 36.6935 10.0928V8.3871ZM36.7502 12.4056C37.9715 12.0271 38.9444 11.0458 39.2663 9.75629L39.2988 9.62734C39.4812 8.89661 40.1344 8.3871 40.8871 8.3871H47.1774C47.9302 8.3871 48.5833 8.89661 48.7668 9.63153L48.7972 9.7521C49.1201 11.0458 50.093 12.0271 51.3144 12.4056C50.8803 16.0414 47.7834 18.871 44.0323 18.871C40.2811 18.871 37.1842 16.0414 36.7502 12.4056ZM48.7741 20.9677L47.7331 23.5719L46.7266 22.901L48.6598 20.9677H48.7741ZM45.695 20.9677L44.6466 22.0161H43.4179L42.3695 20.9677H45.695ZM41.339 22.902L40.3325 23.573L39.2904 20.9677H39.4047L41.339 22.902ZM29.3548 28.3064C29.3548 24.2597 32.6468 20.9677 36.6935 20.9677H37.0322L39.346 26.7506L43.3015 24.1129H44.764L48.7196 26.7506L51.0323 20.9677H51.371C55.4177 20.9677 58.7097 24.2597 58.7097 28.3064V31.4516H54.5161V26.2097H52.4194V31.4516H35.6452V26.2097H33.5484V31.4516H29.3548V28.3064ZM14.6774 15.7258H16.7742V22.0161H14.6774V15.7258ZM4.19355 15.7258H12.5806V24.1129H18.871V15.7258H27.2581V28.3064V31.4516H4.19355V15.7258ZM62.9032 37.7419H2.09677V33.5484H62.9032V37.7419Z" fill="black"/>
<path d="M58.7096 41.9355H56.6128V44.0323H58.7096V41.9355Z" fill="black"/>
<path d="M54.5162 41.9355H52.4194V44.0323H54.5162V41.9355Z" fill="black"/>
<path d="M50.3224 41.9355H48.2256V44.0323H50.3224V41.9355Z" fill="black"/>
<rect x="4" y="47" width="57" height="15" fill="#F9BA48"/>
</svg>
