<svg width="46" height="52" viewBox="0 0 46 52" fill="none" xmlns="http://www.w3.org/2000/svg">
<path d="M44.2673 51.8527C44.8919 51.8527 45.4099 51.3348 45.4099 50.7102V13.7973C45.4099 13.782 45.4099 13.7516 45.4099 13.7363C45.4099 13.4316 45.288 13.1422 45.0899 12.9441L34.4411 0.589062L34.4259 0.573828C34.4259 0.573828 34.4259 0.573828 34.4106 0.558594C34.3802 0.512891 34.3345 0.482422 34.304 0.451954C34.304 0.451954 34.304 0.451953 34.2888 0.436718C34.2431 0.40625 34.2126 0.375781 34.1669 0.345312L34.1517 0.330078C34.0603 0.269141 33.9688 0.238671 33.8622 0.208203H33.847C33.7556 0.192968 33.6642 0.177734 33.5728 0.177734H1.73291C1.1083 0.177734 0.590332 0.695703 0.590332 1.32031V50.7406C0.590332 51.3652 1.1083 51.8832 1.73291 51.8832H44.2673V51.8527ZM34.7153 4.36719L41.7841 12.5785H34.7153V4.36719ZM2.87549 2.43242H32.4302V13.7211C32.4302 14.3457 32.9481 14.8637 33.5728 14.8637H43.1399V49.5523H2.87549V2.43242Z" fill="black"/>
<path d="M12.0007 27.3863C8.78623 27.3863 6.18115 29.9914 6.18115 33.2059C6.18115 34.6226 6.68389 35.9176 7.53701 36.923V45.3629C7.53701 45.7894 7.78076 46.1855 8.16162 46.3836C8.54248 46.5816 8.99951 46.5512 9.3499 46.2922L12.0159 44.3879L14.6667 46.2922C14.8647 46.4293 15.0933 46.5055 15.337 46.5055C15.5198 46.5055 15.6874 46.4598 15.855 46.3836C16.2358 46.1855 16.4796 45.7894 16.4796 45.3629V36.923C17.3175 35.9176 17.8354 34.6226 17.8354 33.2059C17.8202 30.0066 15.2151 27.3863 12.0007 27.3863ZM12.0007 29.6715C13.9507 29.6715 15.5351 31.2559 15.5351 33.2059C15.5351 35.1559 13.9507 36.7402 12.0007 36.7402C11.0257 36.7402 10.1269 36.3441 9.48701 35.6891C9.48701 35.6891 9.48701 35.6891 9.47178 35.6738C8.84717 35.034 8.46631 34.1656 8.46631 33.2059C8.46631 31.2559 10.0507 29.6715 12.0007 29.6715ZM12.671 42.0418C12.2749 41.7523 11.7417 41.7523 11.3304 42.0418L9.80693 43.1387V38.5988C10.4772 38.873 11.2237 39.0254 11.9854 39.0254C12.7624 39.0254 13.4937 38.873 14.164 38.5988V43.1387L12.671 42.0418Z" fill="black"/>
<path d="M7.75049 9.31836H12.0009C12.6255 9.31836 13.1435 8.80039 13.1435 8.17578C13.1435 7.55117 12.6255 7.0332 12.0009 7.0332H7.75049C7.12588 7.0332 6.60791 7.55117 6.60791 8.17578C6.60791 8.80039 7.12588 9.31836 7.75049 9.31836Z" fill="black"/>
<path d="M24.1731 11.9082H7.75049C7.12588 11.9082 6.60791 12.4262 6.60791 13.0508C6.60791 13.6754 7.12588 14.1934 7.75049 14.1934H24.1731C24.7978 14.1934 25.3157 13.6754 25.3157 13.0508C25.3157 12.4262 24.7978 11.9082 24.1731 11.9082Z" fill="black"/>
<path d="M24.1731 16.7984H7.75049C7.12588 16.7984 6.60791 17.3164 6.60791 17.941C6.60791 18.5656 7.12588 19.0836 7.75049 19.0836H24.1731C24.7978 19.0836 25.3157 18.5656 25.3157 17.941C25.3157 17.3164 24.7978 16.7984 24.1731 16.7984Z" fill="black"/>
<rect x="20" y="23" width="19" height="22" fill="#F9BA48"/>
</svg>
