<svg width="36" height="36" viewBox="0 0 36 36" fill="none" xmlns="http://www.w3.org/2000/svg">
<path d="M0 10.778C0.119001 9.93756 0.209668 9.09235 0.360925 8.25804C1.21834 3.53245 4.56387 0.317256 9.34743 0.152486C15.107 -0.0454129 20.884 -0.0558744 26.6426 0.151614C31.849 0.339051 35.6195 4.19415 35.7821 9.40228C35.9552 14.9325 35.9552 20.4763 35.7821 26.0066C35.6195 31.2147 31.8503 35.0694 26.6431 35.2572C20.8844 35.4652 15.1061 35.4704 9.34787 35.2542C4.14061 35.0585 0.540951 31.1946 0.192668 25.9787C0.162591 25.5275 0.0658209 25.0803 0 24.6313C0 20.0134 0 15.3955 0 10.778ZM17.9608 32.1706C20.5963 32.1706 23.2343 32.2495 25.8663 32.1523C29.9929 31.9993 32.5312 29.5365 32.6275 25.4137C32.747 20.2767 32.747 15.1326 32.6275 9.9951C32.5312 5.87323 29.9912 3.35286 25.8663 3.26525C20.6307 3.15453 15.3894 3.1554 10.1538 3.26525C6.06031 3.35112 3.51466 5.82049 3.4035 9.89702C3.26227 15.0991 3.26227 20.3102 3.4035 25.5123C3.51466 29.5884 6.06031 32.0006 10.1543 32.1523C12.7531 32.2491 15.3585 32.1706 17.9608 32.1706Z" fill="black"/>
<path d="M17.956 8.55664C12.9021 8.55664 8.80469 12.6537 8.80469 17.7075C8.80469 22.7617 12.9021 26.8588 17.956 26.8588C23.0102 26.8588 27.1073 22.7617 27.1073 17.7075C27.1073 12.6537 23.0102 8.55664 17.956 8.55664ZM17.956 23.7081C14.6418 23.7081 11.9554 21.0216 11.9554 17.7075C11.9554 14.3933 14.6418 11.7069 17.956 11.7069C21.2701 11.7069 23.9566 14.3933 23.9566 17.7075C23.9566 21.0216 21.2701 23.7081 17.956 23.7081Z" fill="black"/>
<path d="M29.819 8.13923C29.819 9.34145 28.8444 10.3161 27.6422 10.3161C26.44 10.3161 25.4648 9.34145 25.4648 8.13923C25.4648 6.93659 26.44 5.96191 27.6422 5.96191C28.8444 5.96191 29.819 6.93659 29.819 8.13923Z" fill="black"/>
</svg>
