<svg width="41" height="35" viewBox="0 0 41 35" fill="none" xmlns="http://www.w3.org/2000/svg">
<path d="M40.3668 0.958212C39.866 0.340235 39.1159 0 38.2545 0C37.7862 0 37.2901 0.0994193 36.7802 0.296048L2.07458 13.6634C0.232791 14.3726 -0.015263 15.4368 0.000689958 16.0081C0.016643 16.5793 0.32413 17.6278 2.20283 18.231C2.21409 18.2344 2.22535 18.2379 2.23662 18.2411L9.4355 20.3197L13.3287 31.5525C13.8595 33.0839 15.051 34.0352 16.4386 34.0352C17.3135 34.0352 18.174 33.6653 18.9272 32.9659L23.38 28.8291L29.8385 34.0762C29.8391 34.0768 29.84 34.0771 29.8407 34.0778L29.902 34.1276C29.9076 34.1321 29.9135 34.1368 29.9192 34.1412C30.6371 34.703 31.4206 34.9997 32.1861 35H32.1864C33.6819 35 34.8728 33.883 35.2197 32.1547L40.9061 3.8237C41.1345 2.68653 40.943 1.66898 40.3668 0.958212ZM11.8438 19.9249L25.7326 12.7657L17.0845 22.0376C16.9428 22.1894 16.8424 22.3753 16.793 22.5776L15.1254 29.3931L11.8438 19.9249ZM17.2997 31.1826C17.2422 31.236 17.1843 31.2836 17.1264 31.3275L18.6735 25.0051L21.4879 27.2917L17.2997 31.1826ZM38.5516 3.34238L32.8652 31.6737C32.8104 31.9448 32.6356 32.5757 32.1861 32.5757C31.964 32.5757 31.685 32.4536 31.3994 32.2317L24.081 26.2861C24.0801 26.2852 24.0788 26.2842 24.0776 26.2836L19.723 22.7456L32.2292 9.3372C32.6296 8.90797 32.6659 8.25054 32.3153 7.77901C31.9643 7.30747 31.3284 7.15913 30.8082 7.42741L10.2388 18.0302L2.94199 15.9238L37.637 2.5606C37.9301 2.44761 38.1347 2.42394 38.2545 2.42394C38.328 2.42394 38.4587 2.43277 38.5072 2.49306C38.571 2.57165 38.6524 2.8396 38.5516 3.34238Z" fill="black"/>
</svg>
