<svg width="26" height="24" viewBox="0 0 26 24" fill="none" xmlns="http://www.w3.org/2000/svg">
<path d="M7.51581 18.4797C6.37989 18.4197 6.40128 16.7665 7.51576 16.7091C10.6727 16.7204 18.9995 16.7121 22.2569 16.7145C23.1478 16.7145 23.91 16.0871 24.1104 15.189L25.96 6.90135C26.066 6.42683 25.9591 5.93569 25.6668 5.55396C25.3746 5.17223 24.937 4.95021 24.4664 4.95021C23.156 4.95021 12.0328 4.89811 6.33554 4.87461L5.43242 1.40727C5.21562 0.57867 4.48484 0 3.65525 0H0.762124C0.341228 0 0 0.35308 0 0.788594C0 1.22411 0.341228 1.57719 0.762124 1.57719H3.65525C3.79807 1.57719 3.92382 1.67681 3.96096 1.8186L7.42939 15.1341C6.81953 15.157 6.2515 15.4136 5.82075 15.8659C5.36815 16.3411 5.12508 16.9702 5.13631 17.6373C5.15877 18.9715 6.2262 20.0569 7.51581 20.0569H8.62709C8.46191 20.4156 8.36919 20.8167 8.36919 21.2398C8.36919 22.7618 9.56582 24 11.0367 24C12.5076 24 13.7043 22.7618 13.7043 21.2398C13.7043 20.8167 13.6115 20.4156 13.4463 20.0569H18.2587C18.0936 20.4155 18.0009 20.8164 18.0009 21.2394C18.0009 22.7614 19.1976 23.9996 20.6684 23.9996C22.1393 23.9996 23.336 22.7613 23.336 21.2394C23.336 20.7999 23.2357 20.3844 23.0584 20.0152C23.36 19.9101 23.5775 19.6158 23.5775 19.2683C23.5775 18.8328 23.2362 18.4797 22.8153 18.4797H7.51581ZM12.18 21.2399C12.18 21.8922 11.6671 22.4229 11.0367 22.4229C10.4062 22.4229 9.89338 21.8922 9.89338 21.2399C9.89338 20.5879 10.4057 20.0575 11.0357 20.0569H11.0376C11.6676 20.0575 12.18 20.5879 12.18 21.2399ZM20.6685 22.4224C20.0381 22.4224 19.5252 21.8917 19.5252 21.2395C19.5252 20.5936 20.0281 20.0673 20.6499 20.0569H20.6871C21.309 20.0673 21.8119 20.5936 21.8119 21.2395C21.8118 21.8917 21.2989 22.4224 20.6685 22.4224ZM24.472 6.53318C24.4765 6.53907 24.4759 6.54186 24.4749 6.54638L23.6955 10.0385H21.0565L21.5059 6.51494L24.4603 6.52724C24.4648 6.52735 24.4675 6.52735 24.472 6.53318ZM16.6148 15.1373V11.6157H19.3179L18.8687 15.1373H16.6148ZM12.8355 15.1373L12.3827 11.6157H15.0905V15.1373H12.8355ZM9.32708 15.1373H9.32469C9.13893 15.1372 8.97528 15.0076 8.92696 14.8229L8.09157 11.6157H10.845L11.2978 15.1373H9.32708ZM12.1799 10.0386L11.7216 6.47419L15.0905 6.48823V10.0386H12.1799ZM16.6148 10.0386V6.49459L19.9692 6.50858L19.519 10.0386H16.6148ZM10.183 6.46773L10.6422 10.0385H7.68074L6.74688 6.45338L10.183 6.46773ZM22.2569 15.1373H20.4061L20.8553 11.6157H23.3435L22.6252 14.8341C22.5854 15.0126 22.4339 15.1373 22.2569 15.1373Z" fill="#181818"/>
</svg>
