<svg width="173" height="36" viewBox="0 0 173 36" fill="none" xmlns="http://www.w3.org/2000/svg">
<path d="M26.64 7.28C26.256 7.6 25.808 8.032 25.296 8.576C24.784 9.088 24.288 9.632 23.808 10.208C23.328 10.784 22.88 11.36 22.464 11.936C22.08 12.48 21.792 12.944 21.6 13.328L17.568 6.128C16.96 7.216 16.464 8.448 16.08 9.824C15.696 11.168 15.328 12.544 14.976 13.952C14.624 15.36 14.24 16.752 13.824 18.128C13.44 19.472 12.912 20.672 12.24 21.728C11.6 22.784 10.768 23.632 9.744 24.272C8.752 24.912 7.472 25.232 5.904 25.232C5.04 25.232 4.304 25.152 3.696 24.992C3.088 24.8 2.592 24.592 2.208 24.368C1.824 24.144 1.536 23.92 1.344 23.696C1.184 23.472 1.088 23.328 1.056 23.264C0.864 24 0.704 24.704 0.576 25.376C0.48 26.048 0.432 26.656 0.432 27.2C0.432 28.544 0.704 29.632 1.248 30.464C2.816 30.88 4.176 31.088 5.328 31.088C6.512 31.088 7.584 30.816 8.544 30.272C9.504 29.728 10.368 29.008 11.136 28.112C11.904 27.216 12.592 26.208 13.2 25.088C13.84 23.968 14.416 22.832 14.928 21.68C15.44 20.496 15.92 19.36 16.368 18.272C16.816 17.152 17.248 16.176 17.664 15.344C18.08 15.344 18.384 15.456 18.576 15.68C18.8 15.904 19.12 16.336 19.536 16.976C19.28 17.584 19.04 18.112 18.816 18.56C18.624 18.976 18.448 19.376 18.288 19.76C18.128 20.144 18 20.528 17.904 20.912C17.808 21.296 17.76 21.744 17.76 22.256C17.76 23.12 18.064 23.904 18.672 24.608C19.28 25.28 20.064 25.616 21.024 25.616C21.792 25.616 22.432 25.296 22.944 24.656C23.456 24.016 23.712 23.024 23.712 21.68C23.712 21.584 23.696 21.456 23.664 21.296C23.664 21.136 23.632 20.848 23.568 20.432C23.504 19.984 23.392 19.376 23.232 18.608C23.072 17.808 22.848 16.72 22.56 15.344C23.072 14.672 23.392 14.24 23.52 14.048C23.648 13.824 23.84 13.712 24.096 13.712C24.672 14.192 25.136 14.912 25.488 15.872C25.84 16.832 26.144 17.904 26.4 19.088C26.688 20.24 26.96 21.44 27.216 22.688C27.504 23.904 27.84 25.008 28.224 26C28.64 27.024 29.152 27.856 29.76 28.496C30.368 29.136 31.168 29.456 32.16 29.456C32.992 29.456 33.68 29.232 34.224 28.784C34.48 28.272 34.672 27.744 34.8 27.2C34.928 26.656 35.008 26.064 35.04 25.424C35.04 24.688 34.912 23.968 34.656 23.264C34.112 24.128 33.28 24.56 32.16 24.56C31.52 24.56 30.992 24.336 30.576 23.888C30.192 23.408 29.872 22.784 29.616 22.016C29.36 21.216 29.184 20.32 29.088 19.328C28.992 18.304 28.944 17.232 28.944 16.112C28.944 14 29.04 12.08 29.232 10.352C29.456 8.624 29.648 7.088 29.808 5.744C28.88 5.776 27.824 6.288 26.64 7.28ZM20.736 18.32C21.024 18.576 21.296 19.056 21.552 19.76C21.84 20.464 21.984 21.232 21.984 22.064C21.792 23.056 21.376 23.552 20.736 23.552C20.448 23.552 20.192 23.44 19.968 23.216C19.744 22.96 19.6 22.64 19.536 22.256C19.536 21.392 19.632 20.704 19.824 20.192C20.016 19.68 20.32 19.056 20.736 18.32ZM40.1336 16.832C39.0776 17.824 38.2136 18.752 37.5416 19.616C36.9016 20.48 36.5816 21.552 36.5816 22.832C36.5816 23.696 36.7896 24.512 37.2056 25.28C37.6536 26.016 38.3736 26.384 39.3656 26.384C40.0376 26.384 40.7096 26.16 41.3816 25.712C42.0536 25.232 42.6616 24.64 43.2056 23.936C43.7816 23.232 44.2456 22.48 44.5976 21.68C44.9496 20.848 45.1256 20.08 45.1256 19.376C45.1256 18.544 44.8536 17.84 44.3096 17.264C43.7976 16.656 43.0616 16.352 42.1016 16.352C41.9416 16.352 41.7016 16.384 41.3816 16.448C41.0936 16.48 40.8856 16.512 40.7576 16.544L40.1336 16.832ZM42.4856 21.152C42.3576 21.472 42.1496 21.856 41.8616 22.304C41.5736 22.72 41.0616 23.04 40.3256 23.264C39.3016 23.264 38.7896 22.72 38.7896 21.632C38.7896 21.184 38.8536 20.72 38.9816 20.24C39.1416 19.76 39.3336 19.328 39.5576 18.944C39.8136 18.56 40.0856 18.256 40.3736 18.032C40.6936 17.776 41.0296 17.648 41.3816 17.648C42.3416 17.648 42.8216 18.288 42.8216 19.568C42.8216 19.92 42.7896 20.192 42.7256 20.384C42.6616 20.576 42.5976 20.8 42.5336 21.056L42.4856 21.152ZM49.1078 1.04L47.3798 3.104V21.248C47.3798 21.824 47.4118 22.416 47.4758 23.024C47.5718 23.6 47.6998 24.128 47.8598 24.608C48.0198 25.056 48.2278 25.44 48.4838 25.76C48.7398 26.048 49.0438 26.192 49.3958 26.192H49.4438C50.2758 26.192 51.3958 25.152 52.8038 23.072C53.0598 23.776 53.2838 24.32 53.4758 24.704C53.6998 25.088 53.9398 25.376 54.1958 25.568C54.4518 25.76 54.7398 25.872 55.0598 25.904C55.3798 25.936 55.7638 25.952 56.2118 25.952C57.9078 25.952 59.4758 25.616 60.9158 24.944C61.7478 24.336 62.2598 23.824 62.4518 23.408C62.6438 22.96 62.7718 22.4 62.8358 21.728C61.9398 22.4 60.8838 22.88 59.6678 23.168C58.4838 23.456 57.3318 23.6 56.2118 23.6C55.6678 23.6 55.1878 23.328 54.7718 22.784C54.3558 22.208 54.1478 21.552 54.1478 20.816C54.1478 19.824 54.4038 18.192 54.9158 15.92C54.9158 15.568 54.8358 15.36 54.6758 15.296C54.3238 15.296 54.1318 15.36 54.0998 15.488C53.9078 15.968 53.6838 16.624 53.4278 17.456C53.1718 18.288 52.8678 19.12 52.5158 19.952C52.1638 20.784 51.7478 21.504 51.2678 22.112C50.8198 22.72 50.3078 23.024 49.7318 23.024C49.3158 23.024 49.0918 22.72 49.0598 22.112L50.6918 1.04H49.1078ZM53.4278 7.232C52.9158 7.328 52.5318 7.68 52.2758 8.288C52.0198 8.864 51.8918 9.424 51.8918 9.968C51.8918 10.704 52.0838 11.28 52.4678 11.696C52.8838 12.112 53.3958 12.32 54.0038 12.32C54.7398 12.32 55.4278 12 56.0678 11.36C56.7078 10.72 57.1398 9.824 57.3638 8.672C56.5318 9.92 55.7158 10.544 54.9158 10.544C53.9238 10.544 53.4278 9.44 53.4278 7.232ZM89.9291 0.607998L88.1531 4.784V24.848C88.1531 25.168 88.2811 25.328 88.5371 25.328C88.7611 25.328 88.9691 25.168 89.1611 24.848C89.3531 24.528 89.5291 24.16 89.6891 23.744C89.8811 23.296 90.0251 22.88 90.1211 22.496C90.2491 22.112 90.3611 21.84 90.4571 21.68C91.0011 20.336 91.6411 19.312 92.3771 18.608C93.1451 17.904 93.8331 17.52 94.4411 17.456C94.6011 17.712 94.6811 17.952 94.6811 18.176C94.6811 18.496 94.5371 18.832 94.2491 19.184C93.9931 19.504 93.6411 19.872 93.1931 20.288C92.2331 21.152 91.4971 21.632 90.9851 21.728C91.3051 23.072 91.8491 24.048 92.6171 24.656C93.4171 25.264 94.2491 25.568 95.1131 25.568C95.6891 25.568 96.3931 25.552 97.2251 25.52C98.0891 25.488 98.9851 25.424 99.9131 25.328C100.841 25.232 101.753 25.088 102.649 24.896C103.577 24.704 104.409 24.448 105.145 24.128C105.881 23.776 106.473 23.36 106.921 22.88C107.369 22.368 107.593 21.776 107.593 21.104C107.593 20.496 107.465 19.824 107.209 19.088C106.953 18.352 106.825 17.712 106.825 17.168C106.825 16.752 106.889 16.352 107.017 15.968C105.929 16.928 105.385 17.888 105.385 18.848L106.105 21.296C106.105 21.648 105.769 21.92 105.097 22.112C104.425 22.304 103.625 22.464 102.697 22.592C101.801 22.688 100.873 22.752 99.9131 22.784C98.9531 22.816 98.2011 22.832 97.6571 22.832H94.2491C93.5771 22.832 93.2411 22.656 93.2411 22.304C93.2411 22.176 93.3691 21.984 93.6251 21.728C93.8811 21.472 94.1691 21.216 94.4891 20.96C94.8411 20.672 95.1611 20.416 95.4491 20.192C95.7691 19.936 95.9931 19.728 96.1211 19.568C96.9531 18.64 97.3691 17.776 97.3691 16.976C97.3691 16.528 97.2251 16.16 96.9371 15.872C96.6811 15.584 96.3131 15.44 95.8331 15.44C95.2571 15.44 94.6331 15.68 93.9611 16.16C93.2891 16.64 92.6491 17.168 92.0411 17.744C91.4651 18.32 90.9531 18.848 90.5051 19.328C90.0571 19.808 89.7851 20.048 89.6891 20.048L92.2331 1.712L89.9291 0.607998ZM101.497 18.32C101.721 18.32 101.961 18.272 102.217 18.176C102.345 18.048 102.409 17.84 102.409 17.552V17.408C102.409 17.184 102.345 17.008 102.217 16.88C101.961 16.624 101.721 16.496 101.497 16.496C101.305 16.496 101.113 16.624 100.921 16.88C100.729 17.072 100.617 17.264 100.585 17.456C100.617 17.584 100.665 17.712 100.729 17.84C100.793 17.936 100.857 18.048 100.921 18.176C101.113 18.272 101.305 18.32 101.497 18.32ZM114.535 17.072C112.807 17.456 111.351 18.48 110.167 20.144C109.367 21.232 108.967 22.4 108.967 23.648C108.967 24.544 109.143 25.184 109.495 25.568C109.847 25.92 110.375 26.096 111.079 26.096C112.071 26.096 112.871 25.84 113.479 25.328C113.895 25.008 114.295 24.688 114.679 24.368C115.063 24.016 115.431 23.632 115.783 23.216C115.911 23.984 116.087 24.592 116.311 25.04C116.567 25.456 116.855 25.776 117.175 26C117.527 26.192 117.911 26.304 118.327 26.336C118.743 26.368 119.191 26.384 119.671 26.384H119.863C121.655 26.384 123.159 26.016 124.375 25.28C125.591 24.512 126.279 23.2 126.439 21.344C125.319 22.016 124.231 22.512 123.175 22.832C122.151 23.12 121.207 23.264 120.343 23.264C119.927 23.264 119.591 23.136 119.335 22.88C118.695 22.24 118.375 21.456 118.375 20.528V17.264L116.263 18.752C116.263 17.632 115.687 17.072 114.535 17.072ZM112.231 23.312C112.039 23.376 111.863 23.408 111.703 23.408C111.447 23.408 111.287 23.28 111.223 23.024C111.223 22.672 111.335 22.304 111.559 21.92C111.783 21.504 112.039 21.12 112.327 20.768C112.647 20.416 112.983 20.112 113.335 19.856C113.719 19.6 114.055 19.44 114.343 19.376C114.727 19.216 115.031 19.136 115.255 19.136C115.607 19.136 115.783 19.312 115.783 19.664C115.783 19.984 115.639 20.352 115.351 20.768C114.231 22.112 113.191 22.96 112.231 23.312ZM128.856 17.456C128.728 17.712 128.568 18 128.376 18.32C128.184 18.608 128.088 18.944 128.088 19.328C128.088 19.584 128.12 19.856 128.184 20.144C128.28 20.4 128.376 20.64 128.472 20.864C128.568 21.056 128.664 21.232 128.76 21.392C128.856 21.552 128.92 21.648 128.952 21.68C129.08 21.52 129.256 21.296 129.48 21.008C129.736 20.688 130.008 20.384 130.296 20.096C130.584 19.808 130.872 19.552 131.16 19.328C131.448 19.104 131.704 18.992 131.928 18.992C132.184 18.992 132.36 19.104 132.456 19.328C132.584 19.552 132.648 19.76 132.648 19.952C132.648 20.72 132.376 21.456 131.832 22.16C131.32 22.864 130.696 23.408 129.96 23.792L129.096 25.856L131.544 25.328C132.216 25.52 132.552 26.064 132.552 26.96C132.552 28.208 132.184 29.216 131.448 29.984C130.744 30.752 129.944 31.344 129.048 31.76C128.152 32.176 127.288 32.448 126.456 32.576C125.656 32.736 125.176 32.816 125.016 32.816C123.96 32.816 123.176 32.576 122.664 32.096C122.152 31.616 121.768 31.168 121.512 30.752C121.48 30.656 121.432 30.576 121.368 30.512C121.368 31.12 121.512 31.968 121.8 33.056C122.088 34.08 122.568 34.752 123.24 35.072C123.944 35.424 124.76 35.6 125.688 35.6C126.712 35.6 127.752 35.36 128.808 34.88C129.864 34.432 130.808 33.824 131.64 33.056C132.504 32.32 133.208 31.456 133.752 30.464C134.296 29.504 134.568 28.496 134.568 27.44C134.568 26.672 134.376 25.904 133.992 25.136C133.608 24.336 133.128 23.76 132.552 23.408C132.84 23.248 133.096 23.008 133.32 22.688C133.576 22.368 133.8 22 133.992 21.584C134.184 21.168 134.328 20.752 134.424 20.336C134.52 19.888 134.568 19.472 134.568 19.088C134.568 18.16 134.296 17.456 133.752 16.976C133.208 16.496 132.536 16.256 131.736 16.256C130.904 16.256 129.944 16.656 128.856 17.456ZM142.566 17.072C140.838 17.456 139.382 18.48 138.198 20.144C137.398 21.232 136.998 22.4 136.998 23.648C136.998 24.544 137.174 25.184 137.526 25.568C137.878 25.92 138.406 26.096 139.11 26.096C140.102 26.096 140.902 25.84 141.51 25.328C141.926 25.008 142.326 24.688 142.71 24.368C143.094 24.016 143.462 23.632 143.814 23.216C143.942 23.984 144.118 24.592 144.342 25.04C144.598 25.456 144.886 25.776 145.206 26C145.558 26.192 145.942 26.304 146.358 26.336C146.774 26.368 147.222 26.384 147.702 26.384H147.894C149.686 26.384 151.19 26.016 152.406 25.28C153.622 24.512 154.31 23.2 154.47 21.344C153.35 22.016 152.262 22.512 151.206 22.832C150.182 23.12 149.238 23.264 148.374 23.264C147.958 23.264 147.622 23.136 147.366 22.88C146.726 22.24 146.406 21.456 146.406 20.528V17.264L144.294 18.752C144.294 17.632 143.718 17.072 142.566 17.072ZM140.262 23.312C140.07 23.376 139.894 23.408 139.734 23.408C139.478 23.408 139.318 23.28 139.254 23.024C139.254 22.672 139.366 22.304 139.59 21.92C139.814 21.504 140.07 21.12 140.358 20.768C140.678 20.416 141.014 20.112 141.366 19.856C141.75 19.6 142.086 19.44 142.374 19.376C142.758 19.216 143.062 19.136 143.286 19.136C143.638 19.136 143.814 19.312 143.814 19.664C143.814 19.984 143.67 20.352 143.382 20.768C142.262 22.112 141.222 22.96 140.262 23.312ZM166.389 15.536C165.877 15.536 165.173 15.712 164.277 16.064L162.933 19.568C162.421 19.856 161.957 20.048 161.541 20.144C161.125 20.24 160.773 20.288 160.485 20.288C160.293 20.288 159.973 20.24 159.525 20.144C159.109 20.016 158.789 19.92 158.565 19.856L158.949 15.776C158.949 15.776 158.869 15.84 158.709 15.968C158.581 16.064 158.357 16.224 158.037 16.448C157.749 16.672 157.445 16.848 157.125 16.976C156.837 17.104 156.661 17.2 156.597 17.264V26.384C157.269 26.032 157.701 25.584 157.893 25.04C158.117 24.464 158.309 23.76 158.469 22.928L158.565 22.352C158.821 22.416 159.141 22.528 159.525 22.688C159.909 22.848 160.245 22.928 160.533 22.928C160.949 22.928 161.317 22.848 161.637 22.688C161.989 22.496 162.293 22.32 162.549 22.16L162.693 22.064C163.525 23.792 164.389 24.944 165.285 25.52C166.181 26.064 167.285 26.336 168.597 26.336C169.941 26.336 170.901 25.984 171.477 25.28C172.085 24.544 172.389 23.6 172.389 22.448C171.653 23.024 171.029 23.376 170.517 23.504C170.005 23.632 169.381 23.696 168.645 23.696C167.301 23.696 166.341 23.568 165.765 23.312C165.189 23.024 164.901 22.56 164.901 21.92C164.901 21.472 164.949 20.976 165.045 20.432C165.173 19.888 165.301 19.328 165.429 18.752C165.589 18.176 165.749 17.616 165.909 17.072C166.101 16.496 166.261 15.984 166.389 15.536Z" fill="black"/>
</svg>
