<svg width="41" height="48" viewBox="0 0 41 48" fill="none" xmlns="http://www.w3.org/2000/svg">
<path d="M8 16.5714C8.51817 22.0293 9.9012 24.5833 14.1579 28.3095C15.2014 25.4617 15.9109 23.9594 18.2632 22.0952C19.971 20.4944 20.3723 18.9602 19.6316 14.5C22.3622 16.1459 22.9276 18.7277 23.0526 24.8571C24.3799 23.3128 25.1277 22.64 26.4737 22.0952C27.026 24.4935 27.0179 26.0096 26.4737 29C29.5431 27.8666 31.4039 27.3849 31.9474 23.4762C32.0586 20.7489 32.5816 19.3234 34 17.2619C32.018 17.7494 30.94 17.8275 29.2105 19.3333C30.3796 16.5912 30.8185 15.0712 30.5789 12.4286C30.0853 9.51241 29.734 7.94084 27.8421 6.21429C26.6647 8.95564 25.6962 9.48445 23.7368 9.66667C21.9367 6.16955 21.7475 4.08892 23.7368 0C18.3945 1.85545 17.3293 4.28415 16.8947 9.66667C14.455 6.70856 13.0498 5.30962 10.0526 6.21429C11.6626 7.10972 12.5396 7.62343 12.1053 9.66667C11.1126 12.9569 10.8428 14.9348 10.7368 18.6429C9.58765 18.2642 8.98988 17.8429 8 16.5714Z" fill="#FF8D1E"/>
<path d="M-2.10995e-06 28.5C-2.56208e-06 33.6717 2.15981 38.6316 6.00431 42.2886C9.8488 45.9455 15.0631 48 20.5 48C25.9369 48 31.1512 45.9455 34.9957 42.2886C38.8402 38.6316 41 33.6717 41 28.5L20.5 28.5L-2.10995e-06 28.5Z" fill="#FF8D1E"/>
</svg>
