<svg width="9" height="10" viewBox="0 0 9 10" fill="none" xmlns="http://www.w3.org/2000/svg">
<path d="M6.24774 7.05448C6.00421 7.28966 5.60221 7.62902 5.48026 7.72987C5.34361 7.84288 5.14609 7.95405 4.88976 7.94359C4.65636 7.93408 4.46866 7.82572 4.33682 7.73134C4.31514 7.71582 4.28099 7.69427 4.23611 7.66596C3.96863 7.49721 3.32018 7.08812 2.66098 6.28209L2.66087 6.28195C2.05358 5.53889 1.70751 4.69911 1.60909 4.44516C1.51655 4.20641 1.51074 3.94625 1.64524 3.71035C1.74523 3.53497 1.90097 3.42562 1.95791 3.38564C1.96162 3.38304 1.96491 3.38073 1.96773 3.37871L1.96797 3.37854C2.02184 3.34021 2.07481 3.2932 2.14514 3.23079C2.1928 3.18849 2.24844 3.13912 2.31774 3.08056C2.37174 3.03494 2.38552 3.01565 2.45235 2.92212C2.45339 2.92066 2.45444 2.91919 2.45551 2.9177C2.4223 2.79637 2.34981 2.49216 2.2784 2.19106C2.25036 2.07283 2.22143 1.95047 2.19327 1.83134C2.13631 1.59036 2.08248 1.36264 2.04548 1.2093L2.04543 1.20913C2.04172 1.19373 2.0381 1.18013 2.03465 1.16818C1.90933 1.14281 1.78349 1.12014 1.65719 1.10017C1.62233 1.09605 1.58706 1.09886 1.55345 1.10837C1.51844 1.11828 1.48608 1.13523 1.45832 1.15801L1.45005 1.16479L1.44999 1.16471C1.43409 1.17724 1.41701 1.19041 1.39894 1.20434C1.15416 1.39307 0.727962 1.72165 0.60263 2.50049C0.536789 2.90964 0.620014 3.36775 0.750234 3.7713C0.875647 4.15996 1.02916 4.45173 1.07085 4.53096L1.07287 4.5348C1.08036 4.54905 1.09226 4.57335 1.10857 4.60665C1.32499 5.04858 2.31702 7.0743 4.06121 8.18162C4.52151 8.47324 4.88607 8.6618 5.17754 8.80908C5.56791 9.00557 5.95238 9.05131 6.29133 9.05606L6.24774 7.05448ZM6.24774 7.05448C6.25421 7.05861 6.26114 7.06306 6.26854 7.06784C6.30968 7.09443 6.36102 7.12849 6.42026 7.1684C6.53856 7.2481 6.68257 7.34725 6.82847 7.44866C7.12044 7.65161 7.41329 7.85901 7.51043 7.92881L6.24774 7.05448ZM7.51044 7.92882C7.56003 7.96445 7.6074 7.9973 7.64458 8.02326L7.51044 7.92882Z" fill="#FF8D1E" stroke="#FF8D1E" stroke-width="1.09086"/>
</svg>
