<svg width="21" height="19" viewBox="0 0 21 19" fill="none" xmlns="http://www.w3.org/2000/svg">
<path d="M19.8196 7.70616L19.8523 7.71397H5.8001L10.2176 2.89139C10.4339 2.65594 10.5526 2.33699 10.5526 2.00223C10.5526 1.66747 10.4339 1.35075 10.2176 1.11475L9.53025 0.365631C9.3141 0.130184 9.02608 0 8.71893 0C8.41161 0 8.12342 0.129254 7.90727 0.364702L0.334809 8.61261C0.117809 8.84899 -0.000849084 9.16385 4.57413e-06 9.49879C-0.000849084 9.8356 0.117809 10.1506 0.334809 10.3866L7.90727 18.6353C8.12342 18.8706 8.41144 19 8.71893 19C9.02608 19 9.3141 18.8704 9.53025 18.6353L10.2176 17.8862C10.4339 17.6511 10.5526 17.3372 10.5526 17.0024C10.5526 16.6678 10.4339 16.3705 10.2176 16.1352L5.75025 11.2857H19.8353C20.4682 11.2857 21 10.6915 21 10.0024V8.94291C21 8.25386 20.4525 7.70616 19.8196 7.70616Z" fill="#4AAAD7"/>
</svg>
