<svg width="42" height="42" viewBox="0 0 42 42" fill="none" xmlns="http://www.w3.org/2000/svg">
<path d="M0 42L4.25882 29.832C2.62328 26.8688 1.76146 23.5234 1.76146 20.1193C1.76146 14.7453 3.85416 9.69281 7.65425 5.89288C11.4544 2.09295 16.5067 0 21.8808 0C27.2549 0 32.3072 2.0927 36.1072 5.8928C39.9072 9.69289 42 14.7452 42 20.1192C42 25.4933 39.9073 30.5457 36.1072 34.3457C32.3072 38.1457 27.2548 40.2385 21.8808 40.2385C18.4765 40.2385 15.1313 39.3767 12.1681 37.7411L0 42Z" fill="#7BE386"/>
<path d="M0 42L12.1679 37.7412C15.1312 39.3767 18.4765 40.2386 21.8807 40.2386C27.2547 40.2386 32.3072 38.1458 36.1071 34.3458C39.9071 30.5458 42 25.4934 42 20.1193C42 14.7451 39.9073 9.69284 36.1072 5.89282L0 42Z" fill="#3FD33C"/>
<path d="M17.3096 24.6892C22.1201 29.4997 27.5795 31.8395 29.5037 29.9153L31.8264 27.5926C32.3074 27.1116 32.3074 26.3316 31.8264 25.8506L28.923 22.9473C28.442 22.4662 27.6621 22.4662 27.181 22.9473L25.439 24.6893C21.8717 22.9995 18.9994 20.1271 17.3096 16.5599L19.0517 14.8179C19.5327 14.3369 19.5327 13.5569 19.0517 13.0759L16.1483 10.1725C15.6673 9.69151 14.8873 9.69151 14.4063 10.1725L12.0837 12.4952C10.1594 14.4193 12.4992 19.8787 17.3096 24.6892Z" fill="white"/>
<path d="M31.8273 25.8513L28.924 22.948C28.4429 22.467 27.663 22.467 27.1819 22.948L25.4399 24.69C23.6563 23.8452 22.0465 22.7046 20.6712 21.3293L17.3105 24.69C22.121 29.5005 27.5804 31.8402 29.5047 29.916L31.8273 27.5934C32.3083 27.1122 32.3083 26.3323 31.8273 25.8513Z" fill="#DCF4FF"/>
</svg>
